P2
8 8
8
0 0 7 0 7 0 0 7 8 0 0 8 0 8 8 0 8 8 0 8 8 0 8 8 0 8 0 8 0 0 8 8
8 8 8 8 8 8 8 0 8 8 0 8 0 8 8 8 8 0 0 8 8 8 0 0 8 0 8 8 0 8 8 8
